<svg xmlns="http://www.w3.org/2000/svg" viewBox="0 0 64 64">
  <defs>
    <linearGradient id="bg" x1="0" y1="0" x2="1" y2="1">
      <stop offset="0%" stop-color="#fbbf24" />
      <stop offset="100%" stop-color="#f59e0b" />
    </linearGradient>
  </defs>
  <rect width="64" height="64" rx="14" fill="#0f172a" />
  <rect x="6" y="6" width="52" height="52" rx="12" fill="url(#bg)" />
  <path
    d="M37.8 18.5c-6.4 0-11 3.2-12.8 8.6h-4.1v4.3h3.3c0 .5-.1 1-.1 1.5 0 .6 0 1.2.1 1.8h-3.3V39H25c1.7 5.5 6.4 8.8 12.8 8.8 3.2 0 5.9-.7 8-1.9v-6.4c-2.4 1.8-4.8 2.7-7.5 2.7-3.2 0-5.6-1.2-6.9-3.5h10.6v-4.3H30.2c-.1-.5-.1-1-.1-1.6 0-.6 0-1.1.1-1.7H42v-4.3H31.4c1.3-2.2 3.7-3.3 6.9-3.3 2.6 0 5 .9 7.5 2.7v-6.4c-2.2-1.3-4.8-2-8-2z"
    fill="#0f172a"
  />
</svg>
